<?xml version="1.0" standalone="no"?>
<!DOCTYPE svg PUBLIC "-//W3C//DTD SVG 20010904//EN"
 "http://www.w3.org/TR/2001/REC-SVG-20010904/DTD/svg10.dtd">
<svg version="1.0" xmlns="http://www.w3.org/2000/svg"
 width="2294.000000pt" height="1908.000000pt" viewBox="0 0 2294.000000 1908.000000"
 preserveAspectRatio="xMidYMid meet">
<metadata>
Created by potrace 1.16, written by Peter Selinger 2001-2019
</metadata>
<g transform="translate(0.000000,1908.000000) scale(0.100000,-0.100000)"
fill="#000000" stroke="none">
<path d="M10545 19068 c-2 -7 -9 -40 -15 -72 -5 -33 -12 -61 -14 -63 -2 -2
-18 14 -36 37 -17 22 -35 40 -40 40 -4 0 -5 -20 -2 -45 2 -25 1 -45 -3 -45 -4
0 -23 14 -42 31 -55 48 -64 23 -19 -52 20 -34 35 -63 34 -64 -2 -1 -31 -12
-65 -25 -35 -12 -63 -25 -63 -29 0 -3 28 -19 63 -34 l62 -28 -65 -59 c-36 -33
-68 -59 -72 -60 -15 0 -8 -30 7 -30 8 0 45 11 81 25 37 14 69 23 71 21 3 -2
-5 -22 -16 -45 -38 -73 -20 -81 53 -25 25 19 50 33 55 30 4 -3 11 -22 14 -42
5 -32 2 -41 -19 -61 -22 -20 -25 -30 -20 -58 5 -27 2 -41 -15 -64 -15 -21 -20
-37 -15 -55 6 -23 3 -26 -19 -26 -24 0 -25 -2 -25 -75 0 -68 2 -75 20 -75 25
0 25 2 -6 -73 -18 -43 -30 -96 -38 -173 l-11 -111 -107 -121 c-119 -134 -262
-249 -402 -323 -88 -46 -96 -53 -96 -86 0 -15 7 -23 23 -25 19 -3 22 -10 25
-50 3 -47 4 -48 38 -48 33 0 34 -1 34 -40 0 -36 3 -40 25 -40 l25 0 0 -223 c0
-123 3 -312 7 -420 l6 -197 -41 0 -42 0 0 -85 0 -85 30 0 c28 0 29 -2 24 -32
-4 -18 -24 -71 -47 -118 -81 -171 -239 -279 -409 -280 l-48 0 0 -35 0 -35 -67
0 c-225 -1 -383 -96 -473 -287 -23 -48 -51 -108 -63 -133 -35 -73 -139 -169
-237 -217 -82 -40 -219 -83 -267 -83 -21 0 -23 -4 -23 -60 l0 -60 35 0 c34 0
35 -1 35 -40 0 -38 2 -40 30 -40 30 0 30 -1 30 -55 l0 -55 33 0 c25 0 37 -7
53 -33 l21 -32 -4 -825 c-4 -641 -8 -827 -17 -835 -44 -35 -47 -96 -6 -137 21
-21 30 -39 30 -63 0 -30 -6 -37 -83 -87 l-83 -54 73 -103 c40 -57 72 -106 70
-108 -2 -2 -824 2 -1825 9 -1002 6 -1824 10 -1826 7 -3 -2 0 -432 5 -954 6
-523 7 -1050 4 -1172 l-7 -223 56 0 56 0 0 -742 c0 -409 3 -1246 7 -1861 l6
-1117 -31 0 -32 0 0 -171 0 -172 -2458 8 -2459 7 -6 -114 c-4 -62 -7 -251 -7
-420 l0 -308 2470 0 2470 0 0 -30 c0 -29 2 -30 45 -30 l45 0 0 -120 c0 -101
-2 -120 -15 -120 -14 0 -15 -94 -13 -845 l3 -845 -190 5 c-104 3 -1092 21
-2195 40 -1103 19 -2089 36 -2192 39 l-186 5 -7 -67 c-3 -37 -8 -83 -10 -103
l-5 -36 188 -7 c103 -4 1062 -29 2132 -56 1070 -27 2018 -52 2107 -56 l163 -6
0 -179 0 -179 -85 0 -85 0 0 -72 c0 -40 -3 -156 -7 -258 l-6 -186 439 4 c241
1 449 5 462 8 l22 4 0 250 0 250 -75 0 -75 0 0 173 0 173 68 -3 c37 -2 717
-19 1512 -38 795 -20 1473 -38 1508 -41 l62 -6 0 -407 0 -408 403 -6 c221 -4
1259 -16 2307 -27 1048 -11 1955 -23 2016 -26 l111 -6 6 -770 c3 -423 8 -773
12 -776 3 -4 146 -12 318 -19 716 -29 3100 -126 4129 -168 609 -25 1150 -45
1202 -45 53 0 412 25 798 56 l703 56 930 -11 c512 -6 1037 -11 1168 -11 l237
0 0 140 0 140 -36 0 c-20 0 -1830 63 -4023 140 -2192 77 -4108 144 -4258 148
-268 9 -272 9 -328 36 -66 33 -109 86 -129 160 -11 39 -16 171 -21 551 -6 524
-12 590 -55 675 -30 59 -82 96 -165 119 -48 12 2 11 -2140 56 -935 19 -1758
39 -1829 45 -159 12 -191 26 -226 96 -24 46 -25 58 -25 209 0 171 -6 195 -57
241 -45 42 -90 57 -178 61 -307 13 -784 33 -814 33 l-36 0 0 1066 0 1066 318
-6 c174 -3 1012 -8 1862 -11 850 -3 1794 -8 2098 -11 l552 -7 0 -327 0 -328
1123 -6 c617 -3 2447 -11 4067 -16 1620 -6 3261 -14 3648 -17 l702 -6 0 106 0
107 -1440 0 -1440 0 0 349 0 349 1385 -5 c1228 -5 1385 -4 1385 9 0 25 -164
28 -1542 28 l-1298 0 0 195 0 195 -35 0 -35 0 0 1603 c0 881 3 2098 7 2705 l6
1102 109 0 108 0 0 125 0 125 -115 0 -115 0 0 135 0 135 -40 0 c-33 0 -40 3
-40 20 0 15 7 20 25 20 l25 0 0 130 c0 115 -2 130 -17 130 -13 0 -11 6 10 28
24 25 27 35 27 103 l0 76 -202 6 c-112 4 -1766 7 -3676 7 l-3474 0 4 1138 3
1137 58 71 c31 39 57 80 57 92 0 13 9 22 26 26 21 6 25 12 21 31 -4 22 -1 25
24 25 26 0 29 3 29 35 0 28 4 35 20 35 16 0 20 7 20 34 l0 33 -72 6 c-185 14
-336 109 -430 272 -161 279 -281 387 -480 432 -77 17 -88 24 -88 60 0 15 -7
24 -22 27 -104 19 -251 60 -293 81 -116 56 -196 164 -211 281 -7 61 0 74 43
74 21 0 22 3 17 68 -9 110 -10 112 -49 112 l-35 0 0 410 0 410 26 0 c25 0 25
1 19 53 l-7 53 61 -4 c51 -4 61 -2 61 12 0 11 -9 16 -33 16 l-32 0 0 62 0 62
-59 22 c-102 40 -256 178 -409 366 l-77 95 -7 109 c-5 94 -11 119 -39 181 -26
56 -30 73 -19 73 12 0 15 16 15 75 0 73 -1 75 -25 75 -22 0 -25 4 -25 34 0 22
-9 45 -25 64 -15 19 -21 33 -15 37 17 11 11 58 -11 81 -19 20 -19 25 -7 73
l13 53 34 -61 c19 -33 38 -58 43 -55 4 3 8 36 8 74 l0 69 57 -20 c98 -34 109
-19 38 51 -49 48 -46 58 20 59 58 2 60 16 6 50 -28 17 -51 33 -51 35 0 2 27
21 60 42 38 25 60 46 60 58 0 10 -5 16 -12 14 -77 -29 -180 -59 -185 -54 -3 3
2 33 11 67 10 33 15 63 12 66 -3 3 -27 -13 -55 -36 l-49 -41 -11 63 c-6 35
-11 71 -11 80 0 20 -29 23 -35 5z m30 -176 c10 -99 9 -99 101 -68 42 14 79 24
81 22 2 -1 -22 -19 -52 -40 -30 -20 -55 -40 -55 -44 0 -4 25 -32 55 -62 30
-29 53 -55 51 -57 -1 -2 -35 8 -76 22 -40 13 -76 23 -80 20 -3 -2 -12 -29 -19
-60 -7 -30 -16 -55 -21 -55 -4 0 -11 22 -15 48 -10 76 -12 77 -100 43 -43 -17
-80 -29 -82 -27 -2 2 28 29 67 61 l70 57 -22 37 c-12 20 -28 46 -36 59 -20 31
-11 28 40 -14 l43 -37 14 82 c8 44 17 81 22 81 4 0 10 -31 14 -68z m23 -552
c14 -19 22 -44 22 -70 0 -36 2 -40 25 -40 23 0 25 -4 25 -46 0 -41 -2 -46 -20
-41 -27 7 -26 -2 19 -104 36 -80 41 -101 47 -199 l7 -109 92 -113 c150 -184
303 -320 404 -359 45 -17 46 -18 46 -60 0 -42 -1 -44 -33 -47 -27 -3 -31 -7
-28 -25 18 -88 18 -90 -9 -85 l-25 5 0 -443 0 -444 39 0 39 0 4 -57 c4 -61 -3
-73 -39 -73 -21 0 -23 -5 -23 -47 0 -56 19 -133 45 -183 63 -123 186 -197 394
-236 84 -17 92 -20 97 -43 10 -47 13 -51 37 -51 41 0 138 -30 205 -63 101 -49
191 -145 287 -307 95 -162 164 -236 262 -283 l68 -32 -2020 2 c-1111 2 -2036
5 -2055 9 l-35 6 62 23 c89 32 167 81 232 146 56 56 77 92 145 242 64 141 180
236 324 266 29 6 91 11 137 11 l85 0 0 35 c0 33 2 35 33 35 48 0 144 27 204
57 125 62 243 230 268 381 7 42 7 42 -24 42 l-31 0 0 59 0 60 38 3 c20 2 36 6
35 11 -2 4 -3 205 -3 447 l0 440 -25 0 c-22 0 -25 4 -25 40 0 39 -1 40 -36 40
l-37 0 5 45 c5 42 4 45 -18 45 -46 0 -32 19 43 60 144 77 263 171 401 317
l132 138 0 92 c0 84 4 102 40 193 22 55 40 105 40 110 0 6 -11 10 -25 10 -23
0 -25 4 -25 45 0 42 2 45 26 45 25 0 26 2 21 36 -5 28 -1 44 14 65 27 38 59
37 87 -1z m1762 -3642 c0 -18 3 -63 7 -100 l6 -68 -1812 0 -1811 0 0 100 0
100 1805 0 1805 0 0 -32z m-190 -210 c0 -10 -332 -14 -1620 -16 -1451 -2
-1620 -1 -1620 13 0 13 170 15 1620 15 1289 0 1620 -3 1620 -12z m-600 -1603
l0 -1565 -260 0 -260 0 0 319 c0 259 -3 320 -14 324 -7 3 -226 -94 -487 -216
l-474 -222 -72 -70 c-96 -95 -106 -131 -127 -440 -9 -126 -13 -240 -10 -252 6
-23 5 -23 -80 -23 l-86 0 0 -40 0 -40 -60 0 -60 0 0 1890 0 1890 273 3 c149 1
597 3 995 5 l722 2 0 -1565z m517 1555 l93 0 0 -1438 c0 -792 -3 -1494 -7
-1560 l-6 -122 -284 0 -283 0 0 1567 0 1566 197 -6 c108 -4 238 -7 290 -7z
m-2537 -1827 c0 -1006 3 -1872 7 -1925 l6 -98 -176 0 -177 0 0 -40 0 -40 -140
0 -140 0 0 1965 0 1965 310 0 310 0 0 -1827z m-900 842 l0 -515 -45 0 -45 0 0
515 0 515 45 0 45 0 0 -515z m250 -5 l0 -510 -110 0 -110 0 0 510 0 510 110 0
110 0 0 -510z m3540 -745 c0 -810 -3 -1225 -10 -1225 -6 0 -10 -73 -10 -200
l0 -200 25 0 c20 0 25 -5 25 -24 0 -13 3 -38 6 -55 6 -30 6 -31 -30 -31 l-36
0 0 255 0 255 -100 0 -100 0 0 1220 0 1219 63 4 c34 2 86 4 115 5 l52 2 0
-1225z m90 0 l0 -1225 -30 0 -30 0 0 1225 0 1225 30 0 30 0 0 -1225z m-4475
-523 l490 -7 -950 -5 c-522 -3 -951 -2 -953 3 -5 10 -122 9 -122 -2 0 -6 -227
-10 -580 -10 l-580 0 0 21 0 21 1103 -7 c606 -3 1323 -9 1592 -14z m-2115
-307 l0 -265 -225 0 -225 0 0 260 0 260 203 3 c111 1 212 3 225 5 l22 2 0
-265z m580 0 l0 -265 -235 0 -235 0 0 265 0 265 235 0 235 0 0 -265z m630 0
l0 -265 -255 0 -255 0 0 265 0 265 255 0 255 0 0 -265z m610 0 l0 -265 -245 0
-245 0 0 158 c0 88 -3 207 -7 265 l-6 107 251 0 252 0 0 -265z m640 0 l0 -265
-260 0 -260 0 0 265 0 265 260 0 260 0 0 -265z m11210 175 l0 -40 -3525 0
-3525 0 0 40 0 40 3525 0 3525 0 0 -40z m-14630 -1012 l0 -948 -34 0 -34 0 -6
548 c-3 301 -8 742 -11 980 l-4 433 44 -32 45 -32 0 -949z m1630 757 l0 -185
-30 0 -30 0 0 185 0 185 30 0 30 0 0 -185z m7440 137 c0 -27 3 -117 7 -200 l6
-152 -261 0 -262 0 0 200 0 200 255 0 255 0 0 -48z m2440 38 c0 -7 -408 -10
-1205 -10 -797 0 -1205 3 -1205 10 0 7 408 10 1205 10 797 0 1205 -3 1205 -10z
m510 -190 l0 -200 -240 0 -240 0 0 200 0 200 240 0 240 0 0 -200z m1972 193
c-360 -2 -945 -2 -1300 0 -356 1 -62 2 653 2 715 0 1006 -1 647 -2z m-13512
-183 l0 -180 -30 0 -30 0 0 180 0 180 30 0 30 0 0 -180z m560 0 l0 -180 -30 0
-30 0 0 180 0 180 30 0 30 0 0 -180z m1220 0 l0 -180 -30 0 -30 0 0 180 0 180
30 0 30 0 0 -180z m610 0 l0 -180 -30 0 -30 0 0 180 0 180 30 0 30 0 0 -180z
m640 0 l0 -180 -30 0 -30 0 0 180 0 180 30 0 30 0 0 -180z m4120 141 c-5 -11
-10 -74 -10 -140 0 -114 1 -121 20 -121 11 0 20 -7 20 -15 0 -10 -10 -15 -30
-15 -27 0 -30 -3 -30 -30 0 -16 -4 -30 -10 -30 -6 0 -10 68 -10 185 l0 185 30
0 c27 0 30 -2 20 -19z m6352 -126 c-3 -118 -2 -135 12 -135 9 0 16 -7 16 -15
0 -8 -9 -15 -20 -15 -16 0 -20 -7 -20 -30 0 -23 -4 -30 -20 -30 -16 0 -20 7
-20 30 0 23 -4 30 -20 30 -11 0 -20 7 -20 15 0 8 7 15 15 15 12 0 15 20 15
116 0 63 -5 124 -10 135 -10 17 -7 19 32 19 l43 0 -3 -135z m208 116 c-5 -11
-10 -72 -10 -135 0 -96 3 -116 15 -116 8 0 15 -7 15 -15 0 -8 -9 -15 -20 -15
-16 0 -20 -7 -20 -30 0 -23 -4 -30 -20 -30 -16 0 -20 7 -20 30 0 23 -4 30 -20
30 -11 0 -20 7 -20 15 0 8 7 15 16 15 14 0 15 17 12 135 l-3 135 43 0 c39 0
42 -2 32 -19z m491 -1 c13 -10 18 -19 12 -20 -10 0 -13 -33 -13 -130 0 -109 2
-130 15 -130 8 0 15 -9 15 -20 0 -17 -7 -20 -45 -20 -25 0 -45 -4 -45 -10 0
-6 -47 -10 -120 -10 l-120 0 0 180 0 180 139 0 c123 0 141 -2 162 -20z m-8641
-295 l0 -305 -40 0 -40 0 0 -40 0 -40 -114 6 -113 7 5 -52 5 -51 -122 0 -121
0 0 -60 0 -60 -95 0 -95 0 0 -45 0 -45 -106 0 -107 0 5 -45 6 -45 -64 0 -65 0
16 29 15 29 -46 19 -45 18 6 80 c22 288 33 326 122 413 54 53 86 70 518 273
253 119 463 218 468 218 4 1 7 -136 7 -304z m3550 296 c0 -6 -4 -13 -10 -16
-6 -4 -10 -57 -10 -126 0 -112 1 -119 20 -119 11 0 20 -4 20 -10 0 -5 -13 -10
-30 -10 -27 0 -30 -3 -32 -32 l-1 -33 -4 33 c-4 28 -8 32 -34 32 -16 0 -29 5
-29 10 0 6 11 10 25 10 l25 0 0 117 c0 94 -3 120 -17 135 -15 17 -14 18 30 18
26 0 47 -4 47 -9z m220 -10 c-5 -11 -10 -72 -10 -135 0 -109 1 -116 20 -116
11 0 20 -4 20 -10 0 -5 -13 -10 -30 -10 -27 0 -30 -3 -30 -30 0 -16 -4 -30
-10 -30 -5 0 -10 14 -10 30 0 25 -4 30 -25 30 -14 0 -25 5 -25 10 0 6 9 10 20
10 19 0 20 7 20 119 0 69 -4 122 -10 126 -23 14 -7 25 35 25 42 0 45 -2 35
-19z m222 -111 c-3 -126 -3 -130 17 -130 12 0 21 -6 21 -15 0 -10 -10 -15 -30
-15 -27 0 -30 -3 -30 -30 0 -16 -4 -30 -10 -30 -5 0 -10 14 -10 30 0 25 -4 30
-25 30 -14 0 -25 5 -25 10 0 6 9 10 20 10 19 0 20 7 20 116 0 63 -5 124 -10
135 -10 17 -7 19 27 19 l38 0 -3 -130z m-2262 -5 l0 -95 -65 0 -65 0 0 95 0
95 65 0 65 0 0 -95z m190 -5 l0 -100 -50 0 -50 0 0 100 0 100 50 0 50 0 0
-100z m190 0 l0 -100 -50 0 -50 0 0 100 0 100 50 0 50 0 0 -100z m180 5 l0
-95 -55 0 -55 0 0 95 0 95 55 0 55 0 0 -95z m170 0 l0 -95 -50 0 -50 0 0 95 0
95 50 0 50 0 0 -95z m3860 0 l0 -95 -50 0 -50 0 0 95 0 95 50 0 50 0 0 -95z
m1000 0 l0 -95 -60 0 -60 0 0 95 0 95 60 0 60 0 0 -95z m200 0 l0 -95 -60 0
-60 0 0 95 0 95 60 0 60 0 0 -95z m160 0 l0 -95 -45 0 -45 0 0 95 0 95 45 0
45 0 0 -95z m-1540 -10 l0 -95 -50 0 -50 0 0 95 0 95 50 0 50 0 0 -95z m370 0
l0 -95 -55 0 -55 0 0 95 0 95 55 0 55 0 0 -95z m200 0 l0 -95 -55 0 -55 0 0
95 0 95 55 0 55 0 0 -95z m200 0 l0 -95 -60 0 -60 0 0 95 0 95 60 0 60 0 0
-95z m210 0 l0 -95 -60 0 -60 0 0 95 0 95 60 0 60 0 0 -95z m730 0 l0 -95 -45
0 -45 0 0 95 0 95 45 0 45 0 0 -95z m200 0 l0 -95 -45 0 -45 0 0 95 0 95 45 0
45 0 0 -95z m210 0 l0 -95 -45 0 -45 0 0 95 0 95 45 0 45 0 0 -95z m-5020 -5
l0 -90 -60 0 -60 0 0 90 0 90 60 0 60 0 0 -90z m220 0 l0 -90 -65 0 -65 0 0
90 0 90 65 0 65 0 0 -90z m220 0 l0 -90 -60 0 -60 0 0 90 0 90 60 0 60 0 0
-90z m230 0 l0 -90 -60 0 -60 0 0 90 0 90 60 0 60 0 0 -90z m230 0 l0 -90 -60
0 -60 0 0 90 0 90 60 0 60 0 0 -90z m210 5 l0 -85 -60 0 -60 0 0 85 0 85 60 0
60 0 0 -85z m210 -5 l0 -90 -60 0 -60 0 0 90 0 90 60 0 60 0 0 -90z m220 0 l0
-90 -60 0 -60 0 0 90 0 90 60 0 60 0 0 -90z m220 0 l0 -90 -60 0 -60 0 0 90 0
90 60 0 60 0 0 -90z m210 0 l0 -90 -60 0 -60 0 0 90 0 90 60 0 60 0 0 -90z
m220 0 l0 -90 -60 0 -60 0 0 90 0 90 60 0 60 0 0 -90z m3410 -10 l0 -100 -91
0 -91 0 6 31 c3 17 6 62 6 100 l0 69 85 0 85 0 0 -100z m-12112 -197 c-439 -2
-1157 -2 -1595 0 -439 1 -80 2 797 2 877 0 1236 -1 798 -2z m11852 -53 l0 -30
-3520 0 -3520 0 0 30 0 30 3520 0 3520 0 0 -30z m-12730 -578 c0 -330 -3 -687
-7 -795 l-6 -197 -297 0 c-163 0 -500 3 -748 7 l-452 6 0 789 0 788 755 0 755
0 0 -598z m1670 -37 l0 -635 -160 0 -160 0 0 -66 0 -67 -100 6 -100 5 6 -49 7
-49 -97 0 -96 0 0 -50 0 -50 -47 0 c-27 0 -59 -3 -71 -7 l-24 -6 8 725 7 725
-204 6 c-112 4 -269 7 -348 7 l-143 0 4 -725 4 -725 -33 0 -33 0 0 795 0 795
790 0 790 0 0 -635z m-1610 -170 l0 -785 -22 0 -21 0 6 473 c4 259 7 613 7
785 0 271 2 312 15 312 13 0 15 -94 15 -785z m1970 155 l0 -620 -170 0 -170 0
0 620 0 620 170 0 170 0 0 -620z m10700 556 c0 -7 -14 -16 -31 -20 -41 -8
-2055 -8 -4807 1 -1817 5 -2192 9 -2192 20 0 11 592 13 3515 13 2976 0 3515
-2 3515 -14z m-2522 -53 l2482 -6 0 -29 0 -28 -3495 0 -3495 0 0 35 0 35 1013
0 c556 0 2129 -3 3495 -7z m-9420 -29 l22 -6 0 -492 c0 -270 -3 -589 -7 -708
l-6 -218 -303 0 -302 0 -6 93 c-4 50 -7 372 -9 715 l-2 622 295 0 c162 0 305
-3 318 -6z m11902 -89 l0 -25 -3495 0 -3495 0 0 25 0 25 3495 0 3495 0 0 -25z
m-7990 -84 l0 -98 -282 -6 -283 -6 -475 -219 -475 -220 -46 -92 -46 -93 -6 93
c-4 51 -7 133 -7 182 l0 88 85 0 86 0 -7 48 -6 47 106 -3 106 -3 0 45 0 46 95
0 95 0 0 63 0 63 120 -4 120 -4 0 52 0 53 110 -6 110 -7 0 40 0 40 300 0 300
0 0 -99z m600 -95 c0 -107 3 -201 6 -210 6 -14 -24 -16 -285 -16 l-291 0 0
210 0 210 285 0 285 0 0 -194z m7390 89 l0 -35 -3495 0 -3495 0 0 35 0 35
3495 0 3495 0 0 -35z m-110 -120 l0 -55 -3440 0 -3440 0 0 55 0 55 3440 0
3440 0 0 -55z m-6910 -35 l0 -50 3505 0 3505 0 0 -45 0 -45 -45 0 c-34 0 -45
-4 -45 -15 0 -14 -32 -15 -262 -10 -145 3 -801 10 -1458 16 -657 5 -1607 14
-2110 19 -503 6 -1400 10 -1992 10 l-1078 0 0 30 c0 27 -3 30 -30 30 -30 0
-30 1 -30 55 0 48 2 55 20 55 17 0 20 -7 20 -50z m-970 -80 l0 -110 638 0
c350 0 796 -3 990 -7 l352 -6 0 -974 0 -974 -772 5 c-425 4 -1236 9 -1802 12
l-1028 6 7 737 6 736 56 120 55 120 482 222 481 223 268 0 267 0 0 -110z
m1980 -75 c0 -18 -188 -19 -900 -7 l-445 7 260 5 c143 3 446 7 673 8 360 2
412 0 412 -13z m2185 -5 c550 -5 1603 -15 2340 -21 739 -6 1351 -15 1365 -20
15 -5 -231 -7 -620 -4 -355 3 -1570 8 -2702 11 l-2056 7 -5 23 -4 23 341 -5
c188 -2 791 -9 1341 -14z m-5812 -187 c4 -75 7 -198 7 -275 0 -116 -2 -138
-15 -138 -13 0 -15 23 -15 143 0 79 -3 205 -7 281 -5 119 -4 136 9 131 12 -5
16 -34 21 -142z m5023 123 c1 0 4 -432 6 -958 l5 -958 -82 0 -83 0 -6 153 c-3
83 -8 417 -11 742 -4 324 -9 592 -12 595 -2 3 -148 6 -324 8 -189 2 -319 7
-319 13 0 5 -7 9 -15 9 -13 0 -15 -34 -15 -242 0 -134 -3 -476 -7 -760 -6
-494 -7 -518 -25 -518 -17 0 -18 35 -18 966 l0 966 453 -7 c248 -4 453 -8 453
-9z m74 -684 c0 -379 3 -811 7 -960 l6 -272 -26 0 -27 0 0 960 c0 953 0 960
20 960 20 0 20 -7 20 -688z m944 -59 c3 -412 7 -844 9 -960 l4 -213 -464 0
-463 0 0 960 0 960 454 0 454 0 6 -747z m3192 731 l301 -6 6 -127 c3 -69 2
-259 -4 -421 -6 -162 -10 -532 -9 -822 l0 -528 -1610 0 -1610 0 0 959 0 958
1313 -3 c721 -3 1447 -7 1613 -10z m574 -679 l0 -495 -131 0 -131 0 6 138 c3
75 8 236 11 357 3 121 8 282 11 358 l6 137 114 0 114 0 0 -495z m-10170 420
l0 -25 -160 0 -160 0 0 25 0 25 160 0 160 0 0 -25z m10340 -444 c0 -518 9
-471 -86 -471 l-54 0 0 465 0 465 70 0 70 0 0 -459z m-3700 -378 l0 -818 -97
3 c-54 2 -99 5 -99 5 -1 1 -4 368 -8 815 l-7 812 106 0 105 0 0 -817z m-6640
747 c0 -20 -7 -20 -310 -20 -303 0 -310 0 -310 20 0 20 7 20 310 20 303 0 310
0 310 -20z m0 -80 l0 -30 -315 0 -315 0 0 30 0 30 315 0 315 0 0 -30z m310 0
l0 -30 -145 0 -145 0 0 30 0 30 145 0 145 0 0 -30z m4874 -382 c3 -200 8 -528
11 -730 l5 -368 -143 0 c-79 0 -226 -3 -325 -7 l-182 -6 0 405 c0 223 3 554 7
736 l6 332 307 0 308 0 6 -362z m-5184 302 l0 -30 -315 0 -315 0 0 30 0 30
315 0 315 0 0 -30z m310 0 l0 -30 -145 0 -145 0 0 30 0 30 145 0 145 0 0 -30z
m-1330 -210 l0 -160 -207 0 c-115 0 -265 3 -335 7 l-128 6 0 39 0 38 96 0 96
0 -4 50 -3 50 98 -7 97 -6 0 71 0 72 145 0 145 0 0 -160z m1390 80 l0 -80
-173 0 c-96 0 -303 3 -460 7 l-287 6 0 74 0 73 460 0 460 0 0 -80z m-70 -685
l0 -585 -409 0 c-225 0 -416 3 -425 6 -14 6 -16 66 -16 585 l0 579 425 0 425
0 0 -585z m70 418 c0 -93 -3 -354 -7 -580 -5 -335 -9 -413 -20 -413 -11 0 -13
102 -13 580 0 573 0 580 20 580 19 0 20 -7 20 -167z m-2741 11 c2 -2 -437 -4
-977 -4 -712 0 -982 3 -982 11 0 8 265 9 978 4 537 -4 979 -9 981 -11z m1089
-41 l262 -6 0 -65 0 -64 -512 6 c-282 4 -1023 13 -1647 21 -623 8 -1135 15
-1136 17 -1 2 -6 24 -9 51 l-7 47 1393 0 c766 0 1511 -3 1656 -7z m-988 -148
c652 -8 1200 -15 1218 -15 17 0 32 -5 32 -12 0 -11 -143 -11 -1765 12 -1220
17 -1435 22 -1435 32 0 7 133 8 383 4 210 -4 915 -14 1567 -21z m-695 -40
c545 -8 1205 -17 1467 -21 l478 -7 -5 -1906 c-3 -1048 -8 -1948 -11 -1998 l-6
-93 -879 0 -880 0 3 -137 3 -138 881 -3 882 -2 6 -313 c3 -171 7 -720 10
-1219 l4 -908 -52 0 c-316 2 -3219 60 -3224 64 -3 4 -8 385 -10 846 -4 813 -5
840 -23 840 -17 0 -19 8 -19 64 0 55 5 73 33 120 29 50 35 56 66 56 l34 0 -6
2385 -6 2385 132 0 c72 0 578 -7 1122 -15z m-1427 -1564 c-1 -863 -3 -1000 -8
-666 -4 231 -11 723 -14 1092 -7 609 -6 672 8 667 14 -6 16 -113 14 -1093z
m145 552 c4 -302 7 -792 7 -1090 l0 -543 -60 0 -60 0 0 1090 0 1090 53 0 54 0
6 -547z m-199 140 c3 -186 9 -661 12 -1055 l7 -718 -55 0 -55 0 -6 218 c-4
119 -7 594 -7 1055 l0 837 49 0 48 0 7 -337z m6271 52 c836 -3 1684 -8 1884
-11 l363 -6 -4 -64 c-2 -35 -6 -65 -8 -67 -5 -4 -943 5 -3440 33 -531 5 -1043
10 -1137 10 l-173 0 0 61 0 62 498 -7 c273 -3 1181 -8 2017 -11z m8255 -85 l0
-79 -2807 -3 c-1673 -2 -2817 1 -2830 6 -21 8 -23 16 -23 83 l0 73 2830 0
2830 0 0 -80z m-7577 -82 l1507 -12 0 -188 0 -188 65 0 65 0 0 -1277 0 -1278
-257 2 c-815 8 -2929 23 -3160 23 l-273 0 0 730 0 730 -385 0 -385 0 0 -725 0
-725 -130 0 -131 0 6 1093 c3 600 8 1260 11 1466 l6 374 777 -6 c427 -3 1454
-12 2284 -19z m3927 -138 l0 -110 -392 0 c-216 0 -653 3 -970 7 l-578 6 0 104
0 103 970 0 970 0 0 -110z m3470 -17 l0 -126 -802 6 c-442 4 -1187 10 -1655
14 l-853 6 0 114 0 113 1655 0 1655 0 0 -127z m-3340 7 l0 -110 -50 0 -50 0 0
110 0 110 50 0 50 0 0 -110z m1310 -145 c899 -8 1724 -15 1833 -15 l197 0 0
-40 0 -40 115 0 115 0 0 -188 c0 -104 -3 -284 -7 -401 l-6 -212 -855 7 -855 7
5 -1066 c5 -1037 5 -1067 -13 -1067 -18 0 -19 24 -19 735 l0 735 -365 0 -365
0 0 -737 0 -736 -517 6 c-285 4 -623 7 -750 7 l-233 0 0 745 0 745 -400 0
-400 0 0 -745 0 -745 -134 0 c-152 0 -146 -3 -146 85 0 45 -3 53 -21 58 -20 6
-21 9 -14 171 l8 166 -230 0 c-127 0 -251 3 -277 6 l-46 7 0 1270 0 1270 873
-7 c479 -4 1608 -13 2507 -21z m-8673 -657 c-4 -331 -7 -907 -7 -1280 0 -653
-1 -678 -18 -678 -18 0 -19 40 -14 1273 5 1266 5 1286 36 1287 6 0 7 -240 3
-602z m206 -85 c-1 -379 -5 -955 -9 -1280 l-6 -593 -84 0 -84 0 0 1003 c0 551
3 1127 7 1280 l6 277 86 0 86 0 -2 -687z m4791 616 c3 -17 6 -593 6 -1280 0
-1104 -2 -1249 -15 -1249 -13 0 -15 149 -15 1280 0 725 4 1280 9 1280 5 0 11
-14 15 -31z m266 -1249 l0 -1280 -115 0 -115 0 0 583 c0 320 -3 896 -7 1280
l-6 697 121 0 122 0 0 -1280z m5736 1243 c-3 -21 -6 -199 -6 -395 0 -351 0
-358 -20 -358 -19 0 -20 7 -20 118 0 64 3 242 7 395 6 267 7 277 26 277 17 0
19 -5 13 -37z m-11063 -1000 c-1 -560 -5 -1123 -9 -1250 l-6 -233 -37 0 c-20
0 -46 3 -58 6 l-23 6 0 1244 0 1244 68 0 67 0 -2 -1017z m11197 597 l0 -360
-55 0 -55 0 0 360 0 360 55 0 55 0 0 -360z m-9900 -1370 l0 -710 -360 0 -360
0 0 710 0 710 360 0 360 0 0 -710z m9469 624 c3 -2 7 -394 9 -869 l5 -865
-592 0 -591 0 0 873 0 872 582 -3 c320 -2 585 -5 587 -8z m-3779 -989 l0 -735
-370 0 -370 0 0 735 0 735 370 0 370 0 0 -735z m2230 -25 l0 -720 -335 0 -335
0 0 720 0 720 335 0 335 0 0 -720z m-3418 -260 l78 0 0 -67 c0 -38 -3 -105 -7
-150 l-6 -83 -53 0 -54 0 0 49 0 48 -52 7 c-29 3 -72 6 -95 6 l-43 0 0 45 0
45 -105 0 -105 0 0 57 0 56 182 -6 c99 -4 216 -7 260 -7z m-11174 -57 l1612
-6 0 -309 0 -308 -2452 0 -2453 0 2 262 c2 145 6 287 9 316 l5 52 832 0 c458
0 1558 -3 2445 -7z m5202 -168 c0 -13 -53 -15 -413 -15 -228 0 -617 -3 -865
-7 -417 -6 -452 -5 -452 10 0 16 57 17 713 20 391 1 781 3 865 5 129 2 152 0
152 -13z m4 -57 c3 -13 6 -53 6 -90 l0 -68 -870 0 -870 0 0 80 0 80 98 1 c53
1 428 5 832 8 404 4 749 8 766 9 25 2 33 -3 38 -20z m8911 -333 c1034 -8 1897
-15 1918 -15 l37 0 0 -262 0 -261 -932 6 c-513 4 -1628 11 -2478 17 -850 6
-1618 13 -1707 16 l-163 6 0 260 0 261 723 -7 c397 -4 1568 -14 2602 -21z
m-12206 -342 c-12 -21 -26 -42 -31 -47 -4 -6 -8 -43 -8 -83 l0 -73 -65 0 -65
0 0 120 0 120 96 0 96 0 -23 -37z m1 -656 c0 -233 3 -607 7 -830 l6 -407 -106
0 -107 0 0 830 0 830 100 0 100 0 0 -423z m27 -1487 l113 0 0 -190 0 -190 75
0 75 0 0 -225 0 -225 -248 0 c-137 0 -331 -3 -430 -7 l-182 -6 0 74 c0 41 3
145 7 232 l6 157 84 0 83 0 0 197 0 196 152 -6 c83 -4 202 -7 265 -7z"/>
<path d="M9990 13440 l0 -550 575 0 575 0 0 550 0 550 -575 0 -575 0 0 -550z
m1120 0 l0 -520 -550 0 -550 0 0 520 0 520 550 0 550 0 0 -520z"/>
<path d="M10920 7340 l0 -390 380 0 380 0 0 390 0 390 -380 0 -380 0 0 -390z
m730 0 l0 -360 -355 0 -355 0 0 360 0 360 355 0 355 0 0 -360z"/>
</g>
</svg>
